<svg width="1001" height="212" viewBox="0 0 1001 212" fill="none" xmlns="http://www.w3.org/2000/svg">
<path d="M363.613 161.045H381.665L347.642 73.1871H325.209L291.185 161.045H309.238L316.448 141.595H356.195L363.405 161.045H363.613ZM322.379 127.174L336.862 89.7528L351.346 127.174H322.379ZM406.991 106.985V97.594H390.354V160.972H406.991V133.609C406.991 124.957 408.407 119.189 412.048 115.638C415.689 112.087 420.736 111.348 427.946 112.015V96.188C418.51 95.4489 411.309 99.0721 406.991 106.985ZM515.461 96.188C506.025 96.188 498.824 99.0721 493.767 105.579C489.459 99.0721 482.925 96.188 474.227 96.188C466.278 96.188 459.744 99.0721 455.427 105.579V98.4051H438.789V161.784H455.427V130.13C455.427 124.362 456.842 120.072 459.068 117.188C461.294 114.304 464.863 112.159 469.171 112.159C477.121 112.159 481.429 117.188 481.429 127.985V162.523H498.066V130.13C498.066 124.362 499.482 120.072 501.708 117.188C503.934 114.304 507.503 112.898 511.811 112.898C519.76 112.898 524.069 117.927 524.069 128.724V163.262H540.706V123.695C540.706 115.043 538.552 108.608 534.172 103.506C529.116 98.4772 523.321 95.5931 515.371 96.3322L515.434 96.197L515.461 96.188ZM587.078 163.117C597.181 163.117 605.13 160.233 611.665 153.726C618.199 147.219 621.101 139.306 621.101 129.986C621.101 120.667 618.208 112.682 611.665 106.246C605.13 99.739 597.181 96.8549 587.078 96.8549C576.974 96.8549 569.025 99.739 562.49 106.246C555.956 112.754 553.054 120.667 553.054 129.986C553.054 139.306 555.947 147.291 562.49 153.726C569.025 159.494 576.974 163.117 587.078 163.117ZM587.078 148.03C582.021 148.03 577.641 146.624 574.072 143.001C570.503 139.378 569.016 135.087 569.016 130.058C569.016 125.029 570.431 120 574.072 117.116C577.713 113.493 582.021 112.087 587.078 112.087C592.134 112.087 596.514 113.493 600.083 117.116C603.652 120.739 605.139 125.029 605.139 130.058C605.139 135.087 603.724 140.117 600.083 143.001C596.442 146.624 592.134 148.03 587.078 148.03ZM650.005 106.985V97.594H633.368V160.972H650.005V133.609C650.005 124.957 651.42 119.189 655.062 115.638C658.703 112.087 663.75 111.348 670.96 112.015V96.188C661.524 95.4489 654.323 99.0721 650.005 106.985ZM725.2 163.117C736.042 163.117 745.479 160.233 752.689 154.465C759.899 148.697 764.946 142.262 767.173 134.276L750.535 129.986C749.12 134.276 746.227 138.639 741.098 141.523C736.79 144.407 730.995 146.552 724.461 146.552C715.772 146.552 709.301 143.668 704.182 137.9C699.125 132.131 696.232 124.957 696.232 117.044C696.232 109.13 699.125 101.956 704.182 96.188C709.238 90.4197 716.439 87.5356 725.137 87.5356C731.671 87.5356 736.727 88.9416 741.774 92.5648C746.082 95.4489 749.724 99.739 751.211 104.101L767.849 99.8111C765.694 91.8978 760.638 85.3906 753.365 79.6223C746.155 73.8541 736.727 70.97 725.137 70.97C712.131 70.97 701.289 75.2601 691.852 83.9124C683.164 92.5648 678.847 103.362 678.847 116.305C678.847 129.247 683.155 140.045 691.852 149.436C700.54 158.827 711.392 163.117 725.137 163.117H725.209H725.2ZM809.812 163.117C819.916 163.117 827.865 160.233 834.4 153.726C840.934 147.219 843.836 139.306 843.836 129.986C843.836 120.667 840.943 112.682 834.4 106.246C827.865 99.739 819.916 96.8549 809.812 96.8549C799.709 96.8549 791.76 99.739 785.225 106.246C778.691 112.754 775.789 120.667 775.789 129.986C775.789 139.306 778.682 147.291 785.225 153.726C791.021 159.494 799.709 163.117 809.812 163.117ZM809.073 148.03C804.017 148.03 799.637 146.624 796.068 143.001C792.499 139.378 791.012 135.087 791.012 130.058C791.012 125.029 792.427 120 796.068 117.116C799.709 113.493 804.017 112.087 809.073 112.087C814.13 112.087 818.51 113.493 822.079 117.116C825.648 120.739 827.135 125.029 827.135 130.058C827.135 135.087 825.72 140.117 822.079 143.001C819.186 146.624 814.869 148.03 809.073 148.03ZM904.547 69.564V105.579C899.49 99.0721 892.956 96.188 884.268 96.188C875.579 96.188 867.63 99.0721 861.835 105.579C856.039 112.087 852.398 120 852.398 129.319C852.398 138.639 855.291 146.624 861.835 153.059C868.369 159.494 875.579 162.451 884.268 162.451C892.956 162.451 899.427 159.566 904.547 153.059V160.972H921.175V69.564H904.547ZM886.485 148.03C881.429 148.03 877.057 146.624 873.479 143.001C869.91 139.378 868.423 135.087 868.423 129.319C868.423 123.551 869.838 119.261 873.479 115.638C877.121 112.015 881.429 110.609 886.485 110.609C891.541 110.609 895.921 112.015 899.49 115.638C903.06 119.261 904.547 123.551 904.547 128.58C904.547 134.348 903.132 138.639 899.49 142.262C895.849 146.552 891.541 148.03 886.485 148.03ZM968.205 163.117C976.154 163.117 982.688 160.972 987.744 157.349C992.792 153.726 997.181 149.436 998.596 144.407L983.436 140.117C980.543 145.885 975.487 148.769 968.277 148.769C962.481 148.769 958.173 147.363 955.28 145.146C952.387 142.262 950.233 138.639 949.485 134.348H999.407C999.407 132.942 1000.15 130.725 1000.15 128.58C1000.15 119.189 997.253 111.275 991.458 105.507C985.662 99 977.713 96.1159 967.61 96.1159C957.506 96.1159 949.548 99 943.762 105.507C937.218 112.015 934.325 119.928 934.325 129.247C934.325 139.306 937.218 147.219 943.762 153.726C949.557 160.233 958.236 163.117 968.349 163.117H968.214H968.205ZM950.152 124.227C950.891 120.604 952.306 117.053 955.199 114.169C958.101 111.285 962.418 109.879 966.79 109.879C971.837 109.879 975.487 111.285 978.38 114.169C981.273 117.053 983.427 119.937 983.427 124.227H950.143H950.152Z" fill="white"/>
<path d="M23.5274 23.5997C52.2897 -4.99125 98.9889 -4.99125 127.751 23.5997C156.513 52.1817 156.513 98.5384 127.751 127.12C98.9889 155.711 52.2897 155.711 23.5274 127.12C-5.23481 98.5474 -5.23481 52.1817 23.5274 23.5997Z" fill="#FFCCC5"/>
<path d="M75.6348 150.349C56.3007 150.349 36.9666 143.039 22.2475 128.41C7.99705 114.24 0.14624 95.4111 0.14624 75.365C0.14624 55.3188 7.99705 36.4895 22.2475 22.3202C51.6948 -6.93779 99.5838 -6.93779 129.022 22.3202C143.272 36.4805 151.123 55.3188 151.123 75.365C151.123 95.4021 143.272 114.24 129.022 128.41C114.303 143.039 94.9688 150.349 75.6348 150.349ZM24.7983 24.8801C11.2329 38.3643 3.76068 56.2923 3.76068 75.365C3.76068 94.4377 11.2329 112.366 24.7983 125.85C38.8144 139.776 57.2291 146.743 75.6348 146.743C94.0495 146.743 112.455 139.776 126.48 125.85C140.046 112.366 147.518 94.4377 147.518 75.365C147.518 56.2923 140.046 38.3643 126.48 24.8801C98.4481 -2.98084 52.8305 -2.98084 24.7983 24.8801Z" fill="#EEB3AB"/>
<path d="M66.5761 84.9013C95.3384 56.3103 142.038 56.3103 170.8 84.9013C199.562 113.483 199.562 159.84 170.8 188.422C142.038 217.013 95.3384 217.013 66.5761 188.422C37.8139 159.84 37.8139 113.474 66.5761 84.9013Z" fill="#FFEFB8"/>
<path d="M118.693 211.641C99.3584 211.641 80.0244 204.331 65.3052 189.702C51.0548 175.533 43.204 156.703 43.204 136.657C43.204 116.62 51.0548 97.7817 65.3052 83.6124C94.7435 54.3544 142.642 54.3544 172.071 83.6124C186.321 97.7727 194.172 116.611 194.172 136.657C194.172 156.694 186.321 175.533 172.071 189.702C157.352 204.331 138.018 211.641 118.683 211.641H118.693ZM118.693 65.2789C100.278 65.2789 81.8721 72.2463 67.856 86.1723C54.2906 99.6566 46.8184 117.585 46.8184 136.657C46.8184 155.73 54.2906 173.658 67.856 187.142C81.8721 201.068 100.287 208.036 118.693 208.036C137.107 208.036 155.513 201.068 169.529 187.142C183.094 173.658 190.567 155.73 190.567 136.657C190.567 117.585 183.094 99.6566 169.529 86.1723C155.513 72.2373 137.098 65.2789 118.693 65.2789Z" fill="#E0D19B"/>
<path d="M108.147 23.5997C136.909 -4.99125 183.608 -4.99125 212.37 23.5997C241.133 52.1817 241.133 98.5384 212.37 127.12C183.608 155.711 136.909 155.711 108.147 127.12C79.3844 98.5384 79.3844 52.1727 108.147 23.5997Z" fill="#C2E9FF"/>
<path d="M160.263 150.349C140.929 150.349 121.595 143.039 106.876 128.41C92.6253 114.24 84.7745 95.4111 84.7745 75.365C84.7745 55.3188 92.6253 36.4895 106.876 22.3202C136.314 -6.93779 184.203 -6.93779 213.641 22.3202C227.892 36.4805 235.742 55.3188 235.742 75.365C235.742 95.4111 227.892 114.24 213.641 128.41C198.922 143.039 179.588 150.349 160.254 150.349H160.263ZM160.263 3.98664C141.848 3.98664 123.443 10.9541 109.427 24.8801C95.8612 38.3643 88.3889 56.2923 88.3889 75.365C88.3889 94.4377 95.8612 112.366 109.427 125.85C137.459 153.711 183.076 153.711 211.108 125.85C224.674 112.366 232.146 94.4377 232.146 75.365C232.146 56.2923 224.674 38.3643 211.108 24.8801C197.092 10.9451 178.678 3.98664 160.272 3.98664H160.263Z" fill="#A7D1EA"/>
<path fill-rule="evenodd" clip-rule="evenodd" d="M84.9993 69.5079C86.7754 45.6087 99.3209 25.583 117.948 13.2234C136.781 25.4652 149.386 45.6068 150.767 68.7514C152.149 91.896 137.723 117.819 118.169 135.489C95.9454 120.622 83.2231 93.4071 84.9993 69.5079Z" fill="#A183F9"/>
<path fill-rule="evenodd" clip-rule="evenodd" d="M150.758 68.7571C148.919 94.7206 138.194 115.934 117.982 137.528C95.7654 152.489 67.2868 154.366 43.4892 143.252C41.5964 121.89 48.8825 99.9541 65.3052 83.6215C71.2319 77.7294 77.8985 73.0239 85.0073 69.5031C108.863 63.9854 124.299 62.3261 150.758 68.7571Z" fill="#F084B8"/>
<path fill-rule="evenodd" clip-rule="evenodd" d="M193.946 142.507C195.595 121.388 188.578 99.9413 172.273 83.789C165.917 77.4696 158.447 72.34 150.762 68.7505C125.206 61.5704 113.692 58.6844 85.2708 69.679C83.6213 90.7978 91.1771 111.886 107.42 128.038C110.888 131.486 113.49 133.96 117.981 137.53C140.653 152.803 169.825 154.414 193.946 142.507Z" fill="#6CDC92"/>
<path d="M117.98 137.529C141.021 121.353 150.767 100.147 150.767 68.7523C127.121 59.6248 108.266 58.687 84.9993 69.507C83.2931 101.33 96.7294 122.06 117.98 137.529Z" fill="#35198E"/>
</svg>
